{
    "asset" : {
        "generator" : "Khronos glTF Blender I/O v1.7.33",
        "version" : "2.0"
    },
    "scene" : 0,
    "scenes" : [
        {
            "name" : "Scene",
            "nodes" : [
                0
            ]
        }
    ],
    "nodes" : [
        {
            "mesh" : 0,
            "name" : "blank hoodie.002",
            "rotation" : [
                0.7071068286895752,
                0,
                0,
                0.7071067094802856
            ],
            "scale" : [
                0.00953767728060484,
                0.00953767728060484,
                0.00953767728060484
            ],
            "translation" : [
                -0.0363011360168457,
                -0.32858073711395264,
                0
            ]
        }
    ],
    "materials" : [
        {
            "doubleSided" : true,
            "name" : "body",
            "pbrMetallicRoughness" : {
                "baseColorFactor" : [
                    0.800000011920929,
                    0.800000011920929,
                    0.800000011920929,
                    1
                ],
                "metallicFactor" : 0,
                "roughnessFactor" : 0.5
            }
        },
        {
            "doubleSided" : true,
            "name" : "image",
            "pbrMetallicRoughness" : {
                "baseColorFactor" : [
                    0,
                    0,
                    0,
                    1
                ],
                "metallicFactor" : 0,
                "roughnessFactor" : 0.5
            }
        }
    ],
    "meshes" : [
        {
            "name" : "blank hoodie.002",
            "primitives" : [
                {
                    "attributes" : {
                        "POSITION" : 0,
                        "NORMAL" : 1,
                        "TEXCOORD_0" : 2
                    },
                    "indices" : 3,
                    "material" : 0
                },
                {
                    "attributes" : {
                        "POSITION" : 4,
                        "NORMAL" : 5,
                        "TEXCOORD_0" : 6
                    },
                    "indices" : 7,
                    "material" : 1
                }
            ]
        }
    ],
    "accessors" : [
        {
            "bufferView" : 0,
            "componentType" : 5126,
            "count" : 39205,
            "max" : [
                577.409912109375,
                158.43698120117188,
                371.53900146484375
            ],
            "min" : [
                -577.3359375,
                -149.1034698486328,
                -564.335693359375
            ],
            "type" : "VEC3"
        },
        {
            "bufferView" : 1,
            "componentType" : 5126,
            "count" : 39205,
            "type" : "VEC3"
        },
        {
            "bufferView" : 2,
            "componentType" : 5126,
            "count" : 39205,
            "type" : "VEC2"
        },
        {
            "bufferView" : 3,
            "componentType" : 5123,
            "count" : 212145,
            "type" : "SCALAR"
        },
        {
            "bufferView" : 4,
            "componentType" : 5126,
            "count" : 360,
            "max" : [
                103.17677307128906,
                131.7197265625,
                10.103334426879883
            ],
            "min" : [
                -94.44029998779297,
                72.56365966796875,
                -183.37911987304688
            ],
            "type" : "VEC3"
        },
        {
            "bufferView" : 5,
            "componentType" : 5126,
            "count" : 360,
            "type" : "VEC3"
        },
        {
            "bufferView" : 6,
            "componentType" : 5126,
            "count" : 360,
            "type" : "VEC2"
        },
        {
            "bufferView" : 7,
            "componentType" : 5123,
            "count" : 1533,
            "type" : "SCALAR"
        }
    ],
    "bufferViews" : [
        {
            "buffer" : 0,
            "byteLength" : 470460,
            "byteOffset" : 0
        },
        {
            "buffer" : 0,
            "byteLength" : 470460,
            "byteOffset" : 470460
        },
        {
            "buffer" : 0,
            "byteLength" : 313640,
            "byteOffset" : 940920
        },
        {
            "buffer" : 0,
            "byteLength" : 424290,
            "byteOffset" : 1254560
        },
        {
            "buffer" : 0,
            "byteLength" : 4320,
            "byteOffset" : 1678852
        },
        {
            "buffer" : 0,
            "byteLength" : 4320,
            "byteOffset" : 1683172
        },
        {
            "buffer" : 0,
            "byteLength" : 2880,
            "byteOffset" : 1687492
        },
        {
            "buffer" : 0,
            "byteLength" : 3066,
            "byteOffset" : 1690372
        }
    ],
    "buffers" : [
        {
            "byteLength" : 1693440,
            "uri" : "data:application/octet-stream;base64,"
        }
    ]
}
